# xmcd CD Database Entry
#
# Track frame offsets:
# 150
# 46587
# 108343
# 131393
# 153853
# 190995
#
# Disc length: 3264 seconds
#
# Revision: 1
# Processed by: cddbd v1.4b42PL1 Copyright (c) Steve Scherf et al.
# Submitted via: tcd 2.0b
#
DISCID=3f0cbe06
DTITLE=Thors - Fantastic Didgeridoo Dreams
DYEAR=1900
DGENRE=
TTITLE0=Something is out there...
TTITLE1=The Ancient Rock
TTITLE2=Dream Time
TTITLE3=Fire Dance
TTITLE4=Spirit Dance
TTITLE5=Dance of the Dingo
EXTD=The Trance Music Experience
EXTT0=
EXTT1=
EXTT2=
EXTT3=
EXTT4=
EXTT5=
PLAYORDER=
